<svg xmlns="http://www.w3.org/2000/svg" width="36" height="35.999" viewBox="0 0 36 35.999" fill="#1b1b1e"><path d="M-87-685.743c-.108,0-.217.006-.326.006a8.6,8.6,0,0,1-8.589-8.587q0-.34.026-.674h0a8.6,8.6,0,0,1,8.562-7.915c.109,0,.218,0,.326.006v0A8.6,8.6,0,0,1-78.763-695h0q.026.334.026.674A8.6,8.6,0,0,1-87-685.743v0Zm-7.305-8.581a6.986,6.986,0,0,0,6.979,6.978q.164,0,.326-.008v-6.166H-88.13V-695h-6.142Q-94.3-694.665-94.3-694.324Zm7.305,6.97a6.986,6.986,0,0,0,6.652-6.97q0-.341-.032-.674H-83.03v1.478H-87Zm6.62-7.644A6.989,6.989,0,0,0-87-701.3v2.678h.478v3.488h3.49V-695Zm-7.751,0v-3.62H-87V-701.3q-.162-.007-.326-.008A6.988,6.988,0,0,0-94.272-695ZM-98-701.962-94.964-705l1.138,1.138-3.036,3.038Zm17.176-1.9L-79.686-705l3.036,3.036-1.138,1.138Z" transform="translate(105 713)"/></svg>