<svg xmlns="http://www.w3.org/2000/svg" width="36" height="35.999" viewBox="0 0 36 35.999" fill="#1b1b1e"><path d="M-174-613.921c-.232.01-.376.006-.376.006s-.09.005-.242.005c-.784,0-3.212-.14-3.548-1.864-.277-1.983-.528-3.689-.83-4.9A7.562,7.562,0,0,1-181.58-624h0a6.418,6.418,0,0,1-.42-2.294A7.421,7.421,0,0,1-174.374-634q.19,0,.376.008v0a7.4,7.4,0,0,1,7.236,7.7,6.568,6.568,0,0,1-.429,2.294h0a6.925,6.925,0,0,1-2.588,3.329c-.328,1.531-.528,3.415-.83,4.9-.279,1.557-2.492,1.813-3.389,1.853v0Zm-2.684-2.12c.1.346,1.013.625,2.064.625.089,0,.145,0,.156,0l.059,0,.113,0q.149,0,.292-.007v-2.681h-2.983C-176.882-617.458-176.783-616.766-176.682-616.041Zm2.684.613c1.068-.053,1.866-.382,1.907-.611l.005-.034c.125-.614.233-1.3.345-2.036H-174Zm1.085-7.1-.9,2.193v.723h2.3c.077-.468.16-.93.255-1.368l.129-.606.517-.34A5.268,5.268,0,0,0-168.831-624h-5.138Zm-5.209.633.455.324.136.54c.106.427.205.9.3,1.419h1.915v-1.02l.692-1.694-1.2-1.669h-4.107A6.136,6.136,0,0,0-178.123-621.9Zm9.291-2.1a5.256,5.256,0,0,0,.564-2.294,5.871,5.871,0,0,0-5.73-6.192v6.508l.857.572-.857,1.283v.083l.029.04Zm-6.993,0-.034-.048,1.463-2.2.4.265v-6.508q-.186-.009-.376-.009a6.092,6.092,0,0,0-4.4,1.741,6.277,6.277,0,0,0-1.717,4.461,4.975,4.975,0,0,0,.562,2.294Zm1.8-.08.029.04v-.083Z" transform="translate(192 642)"/></svg>