<svg xmlns="http://www.w3.org/2000/svg" width="36" height="36" viewBox="0 0 36 36" fill="#1b1b1e"><path d="M-2162-1683.153q-.283.015-.57.015a10.432,10.432,0,0,1-10.416-9.86h0q-.015-.284-.016-.572A10.432,10.432,0,0,1-2162.568-1704q.287,0,.57.015v0a10.433,10.433,0,0,1,9.86,10.416q0,.288-.015.572h0a10.387,10.387,0,0,1-2.481,6.2l3.664,3.665-1.164,1.165-3.664-3.665a10.385,10.385,0,0,1-6.2,2.481v0Zm-.57-1.632q.287,0,.57-.018v-17.532q-.283-.018-.57-.018a8.8,8.8,0,0,0-8.786,8.784q0,.288.018.572h0A8.8,8.8,0,0,0-2162.568-1684.785Zm.57-.018a8.8,8.8,0,0,0,8.2-8.2h-8.2Zm0-8.2h8.2q.018-.283.019-.572a8.8,8.8,0,0,0-8.214-8.766Z" transform="translate(2180 1711)"/></svg>